<svg viewBox="0 0 24 24" fill="none" stroke="currentColor" stroke-width="2.5" stroke-linecap="round" stroke-linejoin="round" xmlns="http://www.w3.org/2000/svg">
  <path d="M9.9 4.2 8.7 7.4a2 2 0 0 1-1.2 1.2L4.3 9.8l3.2 1.2a2 2 0 0 1 1.2 1.2l1.2 3.2 1.2-3.2a2 2 0 0 1 1.2-1.2l3.2-1.2-3.2-1.2a2 2 0 0 1-1.2-1.2L9.9 4.2Z"/>
  <path d="M18 14.5 17.4 16a1 1 0 0 1-.6.6l-1.5.6 1.5.6a1 1 0 0 1 .6.6L18 20l.6-1.5a1 1 0 0 1 .6-.6l1.5-.6-1.5-.6a1 1 0 0 1-.6-.6L18 14.5Z"/>
  <path d="M18 2v3"/>
  <path d="M20 3.5h-4"/>
</svg>
